# This file uses centimeters as units for non-parametric coordinates.

mtllib wooden_crate.mtl
g default
v -53.508133 -0.120572 53.508133
v 53.508133 -0.120572 53.508133
v -53.508133 106.895691 53.508133
v 53.508133 106.895691 53.508133
v -53.508133 106.895691 -53.508133
v 53.508133 106.895691 -53.508133
v -53.508133 -0.120572 -53.508133
v 53.508133 -0.120572 -53.508133
v -44.928772 8.458792 53.508133
v 44.928772 8.458792 53.508133
v 44.928772 98.316322 53.508133
v -44.928772 98.316322 53.508133
v -44.928772 106.895691 44.928772
v 44.928772 106.895691 44.928772
v 44.928772 106.895691 -44.928772
v -44.928772 106.895691 -44.928772
v -44.928772 98.316322 -53.508133
v 44.928772 98.316322 -53.508133
v 44.928772 8.458792 -53.508133
v -44.928772 8.458792 -53.508133
v 53.508133 8.458792 -44.928772
v 53.508133 8.458792 44.928772
v 53.508133 98.316322 -44.928772
v 53.508133 98.316322 44.928772
v -53.508133 8.458792 -44.928772
v -53.508133 8.458792 44.928772
v -53.508133 98.316322 44.928772
v -53.508133 98.316322 -44.928772
v -44.928772 8.458792 49.539581
v 44.928772 8.458792 49.539581
v 44.928772 98.316322 49.539581
v -44.928772 98.316322 49.539581
v -44.928772 102.927147 44.928772
v 44.928772 102.927147 44.928772
v 44.928772 102.927147 -44.928772
v -44.928772 102.927147 -44.928772
v -44.928772 98.316322 -49.539581
v 44.928772 98.316322 -49.539581
v 44.928772 8.458792 -49.539581
v -44.928772 8.458792 -49.539581
v 49.539581 8.458792 -44.928772
v 49.539581 8.458792 44.928772
v 49.539581 98.316322 -44.928772
v 49.539581 98.316322 44.928772
v -49.539581 8.458792 -44.928772
v -49.539581 8.458792 44.928772
v -49.539581 98.316322 44.928772
v -49.539581 98.316322 -44.928772
v 41.022038 4.296067 -49.230392
v 49.091496 12.365523 -49.230392
v -50.001480 95.319580 -49.230392
v -41.932022 103.389038 -49.230392
v -50.001480 95.319580 -52.662136
v -41.932022 103.389038 -52.662136
v 41.022038 4.296067 -52.662136
v 49.091496 12.365523 -52.662136
v -49.534653 102.534943 -40.574364
v -41.465195 102.534943 -48.643818
v 41.488865 102.534943 50.449150
v 49.558323 102.534943 42.379696
v 41.488865 105.966682 50.449150
v 49.558323 105.966682 42.379696
v -49.534653 105.966682 -40.574364
v -41.465195 105.966682 -48.643818
v -49.549473 3.742083 -41.846066
v -49.549473 11.811544 -49.915512
v -49.316658 94.765373 49.177376
v -49.316658 102.834839 41.107933
v -52.748394 94.769760 49.181770
v -52.748394 102.839226 41.112316
v -52.981209 3.746468 -41.841679
v -52.981209 11.815929 -49.911129
v -49.091496 12.365523 52.569069
v -41.022038 4.296067 52.569069
v 41.932022 103.389038 52.569069
v 50.001480 95.319580 52.569069
v 41.932022 103.389038 49.137325
v 50.001480 95.319580 49.137325
v -49.091496 12.365523 49.137325
v -41.022038 4.296067 49.137325
v 52.689865 94.769798 -49.915478
v 52.689865 102.839256 -41.846024
v 52.922684 3.746432 41.107891
v 52.922684 11.815888 49.177345
v 49.490948 3.742047 41.112274
v 49.490948 11.811503 49.181732
v 49.258133 94.765411 -49.911095
v 49.258133 102.834869 -41.841637
vt 0.544351 0.680593
vt 0.771215 0.680593
vt 0.771215 0.907458
vt 0.544351 0.907458
vt 0.544351 0.226865
vt 0.771215 0.226865
vt 0.771215 0.453729
vt 0.544351 0.453729
vt 0.272176 0.000000
vt 0.542361 0.000000
vt 0.520700 0.021661
vt 0.293836 0.021661
vt 0.542361 0.270185
vt 0.520700 0.248525
vt 0.272176 0.270185
vt 0.293836 0.248525
vt 0.272176 0.270185
vt 0.542361 0.270185
vt 0.520700 0.291845
vt 0.293836 0.291845
vt 0.542361 0.540370
vt 0.520700 0.518710
vt 0.272176 0.540370
vt 0.293836 0.518710
vt 0.806823 0.226865
vt 0.806823 0.453730
vt 0.796804 0.453730
vt 0.796804 0.226865
vt 0.023667 0.248519
vt 0.023667 0.021660
vt 0.033687 0.021660
vt 0.033687 0.248519
vt 0.226865 0.958995
vt 0.000000 0.958995
vt 0.000000 0.948976
vt 0.226865 0.948976
vt 0.226858 0.969015
vt 0.000000 0.969015
vt 0.000000 0.958995
vt 0.226858 0.958995
vt 0.808638 0.453730
vt 0.808638 0.226865
vt 0.818657 0.226865
vt 0.818657 0.453730
vt 0.057355 0.021660
vt 0.057355 0.248519
vt 0.047335 0.248519
vt 0.047335 0.021660
vt 0.544351 0.226865
vt 0.544351 0.000000
vt 0.771215 0.000000
vt 0.771215 0.226865
vt 0.272176 0.810555
vt 0.272176 0.540370
vt 0.293836 0.562030
vt 0.293836 0.788894
vt 0.542361 0.540370
vt 0.520700 0.562030
vt 0.542361 0.810555
vt 0.520700 0.788894
vt 0.071002 0.248520
vt 0.071002 0.021660
vt 0.081022 0.021660
vt 0.081022 0.248520
vt 0.045521 0.021660
vt 0.045521 0.248522
vt 0.035501 0.248522
vt 0.035501 0.021660
vt 0.773136 0.453731
vt 0.773136 0.226865
vt 0.783156 0.226865
vt 0.783156 0.453731
vt 0.069188 0.021660
vt 0.069188 0.248519
vt 0.059169 0.248519
vt 0.059169 0.021660
vt 0.686356 0.963617
vt 0.913221 0.963617
vt 0.913221 0.973637
vt 0.686356 0.973637
vt 0.228785 0.963616
vt 0.455650 0.963616
vt 0.455650 0.973636
vt 0.228785 0.973636
vt 0.684435 0.963617
vt 0.457571 0.963617
vt 0.457571 0.953598
vt 0.684435 0.953598
vt 0.913221 0.963617
vt 0.686356 0.963617
vt 0.686356 0.953598
vt 0.913221 0.953598
vt 0.270185 0.540370
vt 0.270185 0.810555
vt 0.000000 0.810555
vt 0.000000 0.540370
vt 0.544351 0.453729
vt 0.771215 0.453729
vt 0.771215 0.680593
vt 0.544351 0.680593
vt 1.000000 0.226865
vt 0.773136 0.226865
vt 0.773136 0.000000
vt 1.000000 0.000000
vt 0.000000 0.000000
vt 0.270185 0.000000
vt 0.248525 0.021660
vt 0.021660 0.021660
vt 0.270185 0.270185
vt 0.248525 0.248525
vt 0.000000 0.270185
vt 0.021660 0.248525
vt 0.270185 0.540370
vt 0.000000 0.540370
vt 0.021659 0.518711
vt 0.248526 0.518711
vt 0.000000 0.270185
vt 0.021659 0.291844
vt 0.270185 0.270185
vt 0.248526 0.291844
vt 0.455668 0.963616
vt 0.228785 0.963616
vt 0.228785 0.953598
vt 0.455668 0.953598
vt 0.684435 0.973637
vt 0.457571 0.973637
vt 0.457571 0.963617
vt 0.684435 0.963617
vt 0.830491 0.226865
vt 0.830491 0.453730
vt 0.820471 0.453730
vt 0.820471 0.226865
vt 0.784970 0.453730
vt 0.784970 0.226865
vt 0.794990 0.226865
vt 0.794990 0.453730
vt 0.854158 0.226865
vt 0.854158 0.453730
vt 0.844139 0.453730
vt 0.844139 0.226865
vt 0.832305 0.453730
vt 0.832305 0.226865
vt 0.842324 0.226865
vt 0.842324 0.453730
vt 0.324998 0.865359
vt 0.324998 0.894171
vt 0.000000 0.894171
vt 0.000000 0.865359
vt 0.000000 0.902836
vt 0.324998 0.902835
vt 0.000000 0.856695
vt 0.324998 0.856695
vt 0.000000 0.940312
vt 0.000000 0.911500
vt 0.324998 0.911500
vt 0.324998 0.940312
vt 0.324998 0.902836
vt 0.000000 0.902836
vt 0.324997 0.948976
vt 0.000001 0.948976
vt 0.324997 0.819220
vt 0.324998 0.848031
vt 0.000000 0.848031
vt 0.000000 0.819219
vt 0.000000 0.856695
vt 0.324998 0.856695
vt 0.000000 0.810555
vt 0.324997 0.810555
vt 0.654799 0.944934
vt 0.654799 0.916122
vt 0.979797 0.916122
vt 0.979797 0.944934
vt 0.654799 0.907458
vt 0.979797 0.907458
vt 0.654799 0.953598
vt 0.979797 0.953598
vt 0.327400 0.944934
vt 0.327400 0.916122
vt 0.652397 0.916122
vt 0.652397 0.944934
vt 0.327400 0.907458
vt 0.652397 0.907458
vt 0.327400 0.953598
vt 0.652397 0.953598
vn 0.000000 0.000000 1.000000
vn 0.000000 0.000000 1.000000
vn 0.000000 0.000000 1.000000
vn 0.000000 0.000000 1.000000
vn 0.000000 1.000000 0.000000
vn 0.000000 1.000000 0.000000
vn 0.000000 1.000000 0.000000
vn 0.000000 1.000000 0.000000
vn 0.000000 0.000000 -1.000000
vn 0.000000 0.000000 -1.000000
vn 0.000000 0.000000 -1.000000
vn 0.000000 0.000000 -1.000000
vn 1.000000 0.000000 0.000000
vn 1.000000 0.000000 0.000000
vn 1.000000 0.000000 0.000000
vn 1.000000 0.000000 0.000000
vn -1.000000 0.000000 0.000000
vn -1.000000 0.000000 0.000000
vn -1.000000 0.000000 0.000000
vn -1.000000 0.000000 0.000000
vn 0.000000 0.000000 1.000000
vn 0.000000 0.000000 1.000000
vn 0.000000 0.000000 1.000000
vn 0.000000 0.000000 1.000000
vn -0.000000 0.000000 1.000000
vn -0.000000 0.000000 1.000000
vn -0.000000 0.000000 1.000000
vn -0.000000 0.000000 1.000000
vn 0.000000 0.000000 1.000000
vn 0.000000 0.000000 1.000000
vn 0.000000 0.000000 1.000000
vn 0.000000 0.000000 1.000000
vn 0.000000 0.000000 1.000000
vn 0.000000 0.000000 1.000000
vn 0.000000 0.000000 1.000000
vn 0.000000 0.000000 1.000000
vn 0.000000 1.000000 -0.000000
vn 0.000000 1.000000 -0.000000
vn 0.000000 1.000000 -0.000000
vn 0.000000 1.000000 -0.000000
vn 0.000000 1.000000 0.000000
vn 0.000000 1.000000 0.000000
vn 0.000000 1.000000 0.000000
vn 0.000000 1.000000 0.000000
vn 0.000000 1.000000 0.000000
vn 0.000000 1.000000 0.000000
vn 0.000000 1.000000 0.000000
vn 0.000000 1.000000 0.000000
vn 0.000000 1.000000 0.000000
vn 0.000000 1.000000 -0.000000
vn 0.000000 1.000000 -0.000000
vn 0.000000 1.000000 0.000000
vn 0.000000 0.000000 -1.000000
vn -0.000000 0.000000 -1.000000
vn -0.000000 0.000000 -1.000000
vn 0.000000 0.000000 -1.000000
vn -0.000000 0.000000 -1.000000
vn -0.000000 0.000000 -1.000000
vn -0.000000 0.000000 -1.000000
vn -0.000000 0.000000 -1.000000
vn -0.000000 0.000000 -1.000000
vn 0.000000 0.000000 -1.000000
vn 0.000000 0.000000 -1.000000
vn -0.000000 0.000000 -1.000000
vn 0.000000 0.000000 -1.000000
vn 0.000000 0.000000 -1.000000
vn 0.000000 0.000000 -1.000000
vn 0.000000 0.000000 -1.000000
vn 1.000000 0.000000 0.000000
vn 1.000000 0.000000 0.000000
vn 1.000000 0.000000 0.000000
vn 1.000000 0.000000 0.000000
vn 1.000000 0.000000 0.000000
vn 1.000000 -0.000000 0.000000
vn 1.000000 -0.000000 0.000000
vn 1.000000 0.000000 0.000000
vn 1.000000 -0.000000 0.000000
vn 1.000000 -0.000000 0.000000
vn 1.000000 -0.000000 0.000000
vn 1.000000 -0.000000 0.000000
vn 1.000000 -0.000000 0.000000
vn 1.000000 0.000000 0.000000
vn 1.000000 0.000000 0.000000
vn 1.000000 -0.000000 0.000000
vn -1.000000 0.000000 0.000000
vn -1.000000 0.000000 0.000000
vn -1.000000 0.000000 0.000000
vn -1.000000 0.000000 0.000000
vn -1.000000 0.000000 0.000000
vn -1.000000 -0.000000 0.000000
vn -1.000000 -0.000000 0.000000
vn -1.000000 0.000000 0.000000
vn -1.000000 -0.000000 0.000000
vn -1.000000 -0.000000 0.000000
vn -1.000000 -0.000000 0.000000
vn -1.000000 -0.000000 0.000000
vn -1.000000 -0.000000 0.000000
vn -1.000000 0.000000 0.000000
vn -1.000000 0.000000 0.000000
vn -1.000000 -0.000000 0.000000
vn 0.000000 1.000000 0.000000
vn 0.000000 1.000000 0.000000
vn 0.000000 1.000000 0.000000
vn 0.000000 1.000000 0.000000
vn -1.000000 0.000000 0.000000
vn -1.000000 0.000000 0.000000
vn -1.000000 0.000000 0.000000
vn -1.000000 0.000000 0.000000
vn 0.000000 -1.000000 0.000000
vn 0.000000 -1.000000 0.000000
vn 0.000000 -1.000000 0.000000
vn 0.000000 -1.000000 0.000000
vn 1.000000 0.000000 0.000000
vn 1.000000 0.000000 0.000000
vn 1.000000 0.000000 0.000000
vn 1.000000 0.000000 0.000000
vn 0.000000 0.000000 -1.000000
vn 0.000000 0.000000 -1.000000
vn 0.000000 0.000000 -1.000000
vn 0.000000 0.000000 -1.000000
vn -1.000000 0.000000 0.000000
vn -1.000000 0.000000 0.000000
vn -1.000000 0.000000 0.000000
vn -1.000000 0.000000 0.000000
vn 0.000000 0.000000 1.000000
vn 0.000000 0.000000 1.000000
vn 0.000000 0.000000 1.000000
vn 0.000000 0.000000 1.000000
vn 1.000000 0.000000 0.000000
vn 1.000000 0.000000 0.000000
vn 1.000000 0.000000 0.000000
vn 1.000000 0.000000 0.000000
vn 0.000000 -1.000000 0.000000
vn 0.000000 -1.000000 0.000000
vn 0.000000 -1.000000 0.000000
vn 0.000000 -1.000000 0.000000
vn -1.000000 0.000000 0.000000
vn -1.000000 0.000000 0.000000
vn -1.000000 0.000000 0.000000
vn -1.000000 0.000000 0.000000
vn 0.000000 1.000000 0.000000
vn 0.000000 1.000000 0.000000
vn 0.000000 1.000000 0.000000
vn 0.000000 1.000000 0.000000
vn 1.000000 0.000000 0.000000
vn 1.000000 0.000000 0.000000
vn 1.000000 0.000000 0.000000
vn 1.000000 0.000000 0.000000
vn 0.000000 1.000000 0.000000
vn 0.000000 1.000000 0.000000
vn 0.000000 1.000000 0.000000
vn 0.000000 1.000000 0.000000
vn 0.000000 0.000000 1.000000
vn 0.000000 0.000000 1.000000
vn 0.000000 0.000000 1.000000
vn 0.000000 0.000000 1.000000
vn 0.000000 -1.000000 0.000000
vn 0.000000 -1.000000 0.000000
vn 0.000000 -1.000000 0.000000
vn 0.000000 -1.000000 0.000000
vn 0.000000 0.000000 -1.000000
vn 0.000000 0.000000 -1.000000
vn 0.000000 0.000000 -1.000000
vn 0.000000 0.000000 -1.000000
vn 0.000000 1.000000 0.000000
vn 0.000000 1.000000 0.000000
vn 0.000000 1.000000 0.000000
vn 0.000000 1.000000 0.000000
vn 0.000000 0.000000 -1.000000
vn 0.000000 0.000000 -1.000000
vn 0.000000 0.000000 -1.000000
vn 0.000000 0.000000 -1.000000
vn 0.000000 -1.000000 0.000000
vn 0.000000 -1.000000 0.000000
vn 0.000000 -1.000000 0.000000
vn 0.000000 -1.000000 0.000000
vn 0.000000 0.000000 1.000000
vn 0.000000 0.000000 1.000000
vn 0.000000 0.000000 1.000000
vn 0.000000 0.000000 1.000000
vn 0.000000 -1.000000 0.000000
vn 0.000000 -1.000000 0.000000
vn 0.000000 -1.000000 0.000000
vn 0.000000 -1.000000 0.000000
vn 0.000000 0.000000 -1.000000
vn 0.000000 0.000000 -1.000000
vn 0.000000 0.000000 -1.000000
vn 0.000000 0.000000 -1.000000
vn 0.707107 0.707107 0.000000
vn 0.707107 0.707107 0.000000
vn 0.707107 0.707107 0.000000
vn 0.707107 0.707107 0.000000
vn -0.707107 -0.707107 0.000000
vn -0.707107 -0.707107 0.000000
vn -0.707107 -0.707107 0.000000
vn -0.707107 -0.707107 0.000000
vn 0.000000 1.000000 0.000000
vn 0.000000 1.000000 0.000000
vn 0.000000 1.000000 0.000000
vn 0.000000 1.000000 0.000000
vn 0.707107 0.000000 -0.707107
vn 0.707107 0.000000 -0.707107
vn 0.707107 0.000000 -0.707107
vn 0.707107 0.000000 -0.707107
vn -0.707107 0.000000 0.707107
vn -0.707107 0.000000 0.707107
vn -0.707107 0.000000 0.707107
vn -0.707107 0.000000 0.707107
vn -0.999998 0.001279 0.001279
vn -0.999998 0.001279 0.001279
vn -0.999998 0.001279 0.001279
vn -0.999998 0.001279 0.001279
vn 0.000000 0.707107 -0.707106
vn 0.000000 0.707107 -0.707106
vn 0.000000 0.707107 -0.707106
vn 0.000000 0.707107 -0.707106
vn 0.000000 -0.707107 0.707106
vn 0.000000 -0.707107 0.707106
vn 0.000000 -0.707107 0.707106
vn 0.000000 -0.707107 0.707106
vn 0.000000 0.000000 1.000000
vn 0.000000 0.000000 1.000000
vn 0.000000 0.000000 1.000000
vn 0.000000 0.000000 1.000000
vn 0.707107 -0.707107 0.000000
vn 0.707107 -0.707107 0.000000
vn 0.707107 -0.707107 0.000000
vn 0.707107 -0.707107 0.000000
vn -0.707107 0.707107 0.000000
vn -0.707107 0.707107 0.000000
vn -0.707107 0.707107 0.000000
vn -0.707107 0.707107 0.000000
vn 0.999998 0.001279 -0.001279
vn 0.999998 0.001279 -0.001279
vn 0.999998 0.001279 -0.001279
vn 0.999998 0.001279 -0.001279
vn 0.000000 0.707107 0.707107
vn 0.000000 0.707107 0.707107
vn 0.000000 0.707107 0.707107
vn 0.000000 0.707107 0.707107
vn -0.000000 -0.707107 -0.707107
vn -0.000000 -0.707107 -0.707107
vn -0.000000 -0.707107 -0.707107
vn -0.000000 -0.707107 -0.707107
s off
g crate
usemtl crate_lowSG
f 29/97/1 30/98/2 31/99/3 32/100/4
f 33/49/5 34/50/6 35/51/7 36/52/8
f 37/101/9 38/102/10 39/103/11 40/104/12
f 42/1/13 41/2/14 43/3/15 44/4/16
f 45/5/17 46/6/18 47/7/19 48/8/20
f 1/105/21 2/106/22 10/107/23 9/108/24
f 2/106/25 4/109/26 11/110/27 10/107/28
f 4/109/29 3/111/30 12/112/31 11/110/32
f 3/111/33 1/105/34 9/108/35 12/112/36
f 3/53/37 4/54/38 14/55/39 13/56/40
f 4/54/41 6/57/42 15/58/43 14/55/44
f 6/57/45 5/59/46 16/60/47 15/58/48
f 5/59/49 3/53/50 13/56/51 16/60/52
f 5/113/53 6/114/54 18/115/55 17/116/56
f 6/114/57 8/117/58 19/118/59 18/115/60
f 8/117/61 7/119/62 20/120/63 19/118/64
f 7/119/65 5/113/66 17/116/67 20/120/68
f 2/9/69 8/10/70 21/11/71 22/12/72
f 8/10/73 6/13/74 23/14/75 21/11/76
f 6/13/77 4/15/78 24/16/79 23/14/80
f 4/15/81 2/9/82 22/12/83 24/16/84
f 7/17/85 1/18/86 26/19/87 25/20/88
f 1/18/89 3/21/90 27/22/91 26/19/92
f 3/21/93 5/23/94 28/24/95 27/22/96
f 5/23/97 7/17/98 25/20/99 28/24/100
f 9/61/101 10/62/102 30/63/103 29/64/104
f 10/25/105 11/26/106 31/27/107 30/28/108
f 11/65/109 12/66/110 32/67/111 31/68/112
f 12/29/113 9/30/114 29/31/115 32/32/116
f 13/121/117 14/122/118 34/123/119 33/124/120
f 14/33/121 15/34/122 35/35/123 34/36/124
f 15/125/125 16/126/126 36/127/127 35/128/128
f 16/37/129 13/38/130 33/39/131 36/40/132
f 17/69/133 18/70/134 38/71/135 37/72/136
f 18/41/137 19/42/138 39/43/139 38/44/140
f 19/73/141 20/74/142 40/75/143 39/76/144
f 20/45/145 17/46/146 37/47/147 40/48/148
f 22/77/149 21/78/150 41/79/151 42/80/152
f 21/129/153 23/130/154 43/131/155 41/132/156
f 23/81/157 24/82/158 44/83/159 43/84/160
f 24/133/161 22/134/162 42/135/163 44/136/164
f 25/85/165 26/86/166 46/87/167 45/88/168
f 26/137/169 27/138/170 47/139/171 46/140/172
f 27/89/173 28/90/174 48/91/175 47/92/176
f 28/141/177 25/142/178 45/143/179 48/144/180
f 2/93/181 1/94/182 7/95/183 8/96/184
f 53/145/185 54/146/186 56/147/187 55/148/188
f 50/149/189 56/147/190 54/146/191 52/150/192
f 55/148/193 49/151/194 51/152/195 53/145/196
f 61/153/197 62/154/198 64/155/199 63/156/200
f 58/157/201 64/155/202 62/154/203 60/158/204
f 63/156/205 57/159/206 59/160/207 61/153/208
f 69/161/209 70/162/210 72/163/211 71/164/212
f 66/165/213 72/163/214 70/162/215 68/166/216
f 71/164/217 65/167/218 67/168/219 69/161/220
f 73/169/221 74/170/222 76/171/223 75/172/224
f 74/170/225 80/173/226 78/174/227 76/171/228
f 79/175/229 73/169/230 75/172/231 77/176/232
f 81/177/233 82/178/234 84/179/235 83/180/236
f 82/178/237 88/181/238 86/182/239 84/179/240
f 87/183/241 81/177/242 83/180/243 85/184/244
